<svg xmlns="http://www.w3.org/2000/svg" viewBox="0 0 54 76">
  <!-- Outer glow -->
  <ellipse cx="27" cy="70" rx="20" ry="8" fill="rgba(255,80,0,0.18)"/>
  <!-- Outer flame - dark red -->
  <path d="M27 75
    Q8  64  9  47
    Q5  38 13 32
    Q10 20 18 15
    Q13  6 21  3
    Q22 14 26 10
    Q29  3 33  8
    Q39  5 36 18
    Q44 22 41 34
    Q48 40 45 52
    Q47 67 27 75Z"
    fill="#CC2000"/>
  <!-- Middle flame - orange -->
  <path d="M27 70
    Q12 59 13 45
    Q11 37 18 33
    Q15 24 21 20
    Q19 13 23 10
    Q25 19 27 15
    Q29 10 31 16
    Q36 18 34 28
    Q40 35 37 45
    Q39 56 27 70Z"
    fill="#FF6820"/>
  <!-- Inner flame - amber -->
  <path d="M27 64
    Q16 55 17 46
    Q15 40 21 37
    Q18 31 22 28
    Q23 22 25 26
    Q26 22 27 26
    Q28 22 29 26
    Q31 23 32 28
    Q36 33 33 40
    Q35 49 27 64Z"
    fill="#FFAA00"/>
  <!-- Core - yellow -->
  <path d="M27 57
    Q20 50 21 44
    Q19 40 24 38
    Q22 34 26 32
    Q27 28 28 32
    Q32 34 30 38
    Q34 42 31 50
    Q27 57 27 57Z"
    fill="#FFD700"/>
  <!-- Hot core - near white -->
  <path d="M27 50
    Q23 46 23 43
    Q22 40 26 39
    Q27 36 28 39
    Q31 40 30 44
    Q27 50 27 50Z"
    fill="rgba(255,250,220,0.85)"/>
</svg>
